<svg width="107" height="121" viewBox="0 0 107 121" fill="none" xmlns="http://www.w3.org/2000/svg">
<path d="M99.1794 0L91.5649 30.4532V119.298L80.1455 113.232L68.7261 121L57.3068 113.232L45.8874 121L34.468 113.232L23.0486 121L11.6269 113.232L0.20752 119.298V8.11078C0.20752 3.63 3.83752 0 8.31594 0L99.1794 0Z" fill="#F1F1F1"/>
<path d="M13.8647 85.4326H20.9546V92.5225H13.8647V85.4326Z" fill="#D6D6EA"/>
<path d="M99.1797 0L91.5652 30.4532V119.298L80.1458 113.232L68.7264 121L57.3071 113.232L45.8877 121V0H99.1797Z" fill="#D6D6EA"/>
<path d="M106.793 30.4532H91.5659V7.61331C91.5662 3.40856 94.9747 0 99.1792 0C103.384 0 106.793 3.40856 106.793 7.61331V30.4532Z" fill="#A9AACA"/>
<path d="M28.1045 85.4326H35.1943V92.5225H28.1045V85.4326Z" fill="#D6D6EA"/>
<path d="M42.3428 85.4326H49.4326V92.5225H42.3428V85.4326Z" fill="#D6D6EA"/>
<path d="M45.8877 85.4326H49.4326V92.5225H45.8877V85.4326Z" fill="#A9AACA"/>
<path d="M56.5815 85.4326H63.6714V92.5225H56.5815V85.4326Z" fill="#A9AACA"/>
<path d="M53.0078 21.3584H77.9109V28.4482H53.0078V21.3584Z" fill="#293E65"/>
<path d="M53.0078 35.5972H77.9109V42.687H53.0078V35.5972Z" fill="#293E65"/>
<path d="M53.0078 49.8359H77.9109V56.9258H53.0078V49.8359Z" fill="#293E65"/>
<path d="M53.0078 64.0747H77.9109V71.1646H53.0078V64.0747Z" fill="#293E65"/>
<path d="M70.8198 85.4326H77.9097V92.5225H70.8198V85.4326Z" fill="#A9AACA"/>
<path d="M42.3145 53.7201C42.3145 47.6954 37.413 42.794 31.3883 42.794H27.3339C25.2185 42.794 23.4976 41.073 23.4976 38.9579C23.4976 36.8425 25.2185 35.1216 27.3339 35.1216H31.2954C33.4134 35.1216 35.1365 36.8447 35.1365 38.9624H42.2263C42.2263 33.4824 38.1723 28.9324 32.906 28.1513V23.084H25.8162V28.1395C20.5075 28.8809 16.4077 33.4484 16.4077 38.9579C16.4077 44.9824 21.3092 49.8838 27.3339 49.8838H31.3883C33.5037 49.8838 35.2246 51.6048 35.2246 53.7201C35.2246 55.8355 33.5037 57.5565 31.3883 57.5565H27.2618C25.2185 57.5565 23.5562 55.8941 23.5562 53.8506H16.4663C16.4663 59.3129 20.5449 63.8376 25.8159 64.5466V69.5936H32.9058V64.5388C38.2147 63.7974 42.3145 59.2299 42.3145 53.7201Z" fill="#4E588B"/>
</svg>
