<svg width="38" height="38" viewBox="0 0 38 38" fill="none" xmlns="http://www.w3.org/2000/svg">
<path d="M35.047 14.9708C35.7351 14.3 35.978 13.3157 35.6811 12.4018C35.3842 11.488 34.6091 10.8345 33.6582 10.6963L25.3434 9.48814C25.1802 9.46447 25.0391 9.36197 24.9661 9.21398L21.2477 1.67966C20.8225 0.817981 19.9614 0.282715 19.0005 0.282715C18.0396 0.282715 17.1785 0.817981 16.7533 1.67966L13.0348 9.21405C12.9617 9.36197 12.8207 9.46447 12.6574 9.48822L4.34287 10.6963C3.39198 10.8345 2.61691 11.488 2.31989 12.4018C2.02287 13.3157 2.26586 14.3 2.95401 14.9708L8.97056 20.8354C9.08864 20.9506 9.14259 21.1165 9.11469 21.2791L7.69436 29.5602C7.53197 30.5073 7.9139 31.4464 8.69127 32.0112C9.46864 32.5761 10.4801 32.6491 11.3305 32.2021L18.7673 28.2923C18.9133 28.2155 19.0877 28.2155 19.2338 28.2923L26.6707 32.2021C27.0406 32.3965 27.4409 32.4926 27.8392 32.4925C28.3565 32.4925 28.8705 32.3304 29.3097 32.0111C30.087 31.4462 30.4691 30.507 30.3066 29.5601L28.8863 21.2791C28.8584 21.1164 28.9123 20.9506 29.0304 20.8354L35.047 14.9708ZM26.9105 21.6181L28.3308 29.8993C28.3783 30.1764 28.2072 30.3344 28.1315 30.3894C28.0556 30.4443 27.8524 30.5584 27.6036 30.4275L20.1667 26.5177C19.8017 26.3259 19.4012 26.2298 19.0006 26.2298C18.6001 26.2298 18.1995 26.3259 17.8345 26.5176L10.3977 30.4273C10.1488 30.5582 9.94564 30.4443 9.86986 30.3893C9.79409 30.3343 9.62294 30.1762 9.67051 29.8991L11.0908 21.6181C11.2303 20.805 10.961 19.9758 10.3701 19.4L4.35356 13.5353C4.1522 13.3389 4.19777 13.1105 4.22679 13.0215C4.25566 12.9323 4.35311 12.7207 4.63136 12.6804L12.9459 11.4722C13.7622 11.3536 14.4676 10.8412 14.8328 10.1013L18.5512 2.56687C18.6757 2.31475 18.907 2.28751 19.0007 2.28751C19.0943 2.28751 19.3256 2.31468 19.4501 2.56687V2.56695L23.1685 10.1013C23.5336 10.8412 24.239 11.3536 25.0553 11.4722L33.37 12.6804C33.6482 12.7208 33.7456 12.9324 33.7745 13.0215C33.8035 13.1107 33.8491 13.3391 33.6477 13.5354L27.6312 19.4001C27.0404 19.9758 26.771 20.805 26.9105 21.6181Z" fill="#FEFEFE"/>
<path d="M30.7111 1.67904C30.2632 1.35366 29.6364 1.45296 29.311 1.9008L28.2469 3.36529C27.9216 3.81312 28.0208 4.44005 28.4687 4.76542C28.6467 4.89464 28.8529 4.95691 29.0571 4.95691C29.3671 4.95691 29.6727 4.81359 29.8688 4.54373L30.9329 3.07925C31.2583 2.63134 31.159 2.00441 30.7111 1.67904Z" fill="#FEFEFE"/>
<path d="M9.74954 3.35956L8.68546 1.89508C8.36016 1.44739 7.73331 1.34809 7.28532 1.67331C6.83749 1.99869 6.73818 2.62562 7.06356 3.07345L8.12763 4.53794C8.32379 4.80802 8.62943 4.95126 8.93951 4.95126C9.14384 4.95126 9.35002 4.88899 9.52785 4.7597C9.97568 4.4344 10.075 3.80748 9.74954 3.35956Z" fill="#FEFEFE"/>
<path d="M3.67792 22.7725C3.50684 22.246 2.94137 21.9578 2.41479 22.1289L0.693135 22.6884C0.166553 22.8595 -0.12149 23.4251 0.0495846 23.9515C0.187186 24.3752 0.580174 24.6445 1.0027 24.6445C1.10535 24.6445 1.20977 24.6285 1.31271 24.5951L3.03437 24.0356C3.56087 23.8645 3.84899 23.2991 3.67792 22.7725Z" fill="#FEFEFE"/>
<path d="M19.0004 33.9021C18.4468 33.9021 17.998 34.3509 17.998 34.9045V36.7148C17.998 37.2684 18.4468 37.7172 19.0004 37.7172C19.554 37.7172 20.0028 37.2684 20.0028 36.7148V34.9045C20.0028 34.3508 19.5541 33.9021 19.0004 33.9021Z" fill="#FEFEFE"/>
<path d="M37.3071 22.6898L35.5854 22.1303C35.0591 21.9594 34.4934 22.2474 34.3223 22.774C34.1512 23.3005 34.4393 23.866 34.9658 24.0371L36.6875 24.5965C36.7904 24.6299 36.8948 24.6458 36.9974 24.6458C37.42 24.6458 37.813 24.3765 37.9506 23.9528C38.1217 23.4263 37.8336 22.8609 37.3071 22.6898Z" fill="#FEFEFE"/>
</svg>
