<svg width="110" height="110" viewBox="0 0 110 110" fill="none" xmlns="http://www.w3.org/2000/svg">
<path d="M93.8909 16.1091C83.5029 5.72105 69.6908 0 55 0C41.7754 0 28.9955 4.76097 19.0137 13.4068C18.3314 13.9976 18.2575 15.0298 18.8483 15.7113C19.4392 16.3936 20.4706 16.4674 21.1529 15.8766C30.5405 7.74529 42.5609 3.26714 55 3.26714C68.818 3.26714 81.8093 8.6483 91.5805 18.4195C101.352 28.1907 106.733 41.182 106.733 55C106.733 68.818 101.352 81.8093 91.5805 91.5805C81.8093 101.352 68.818 106.733 55 106.733C41.182 106.733 28.1907 101.352 18.4195 91.5805C8.6483 81.8093 3.26714 68.818 3.26714 55C3.26714 42.1471 8.01132 29.8255 16.6269 20.3061C17.232 19.6372 17.1799 18.6041 16.5111 17.9982C15.8422 17.3931 14.8091 17.4443 14.204 18.114C5.04463 28.2352 0 41.3348 0 55C0 69.6908 5.72105 83.5029 16.1091 93.8909C26.4971 104.279 40.3092 110 55 110C69.6908 110 83.5029 104.279 93.8909 93.8909C104.279 83.5029 110 69.6908 110 55C110 40.3092 104.279 26.4971 93.8909 16.1091V16.1091Z" fill="white"/>
<path d="M52.923 74.5776C47.8784 74.5776 43.7737 78.7268 43.7737 83.826C43.7737 88.9252 47.8784 93.0743 52.923 93.0743C55.3996 93.0743 57.7318 92.0891 59.49 90.299C61.1936 88.5643 62.1714 86.2052 62.1714 83.826C62.1714 81.3813 61.202 79.0659 59.443 77.306C57.6831 75.547 55.3677 74.5776 52.923 74.5776ZM52.923 89.8072C49.6794 89.8072 47.0408 87.1242 47.0408 83.826C47.0408 80.5278 49.6794 77.8448 52.923 77.8448C56.165 77.8448 58.9034 80.584 58.9034 83.826C58.9034 87.0679 56.165 89.8072 52.923 89.8072V89.8072Z" fill="white"/>
<path d="M68.6653 49.0641C69.3459 49.6583 70.3773 49.5878 70.9706 48.908C74.9075 44.398 76.904 39.6764 76.904 34.8752C76.904 29.8121 74.6297 25.2223 70.5007 21.9518C66.3498 18.6646 60.7169 16.9273 54.2095 16.9273C46.1595 16.9273 41.1804 19.6448 38.4218 21.9241C35.0858 24.6802 33.0935 28.3762 33.0935 31.8103C33.0935 34.0427 34.0074 36.009 35.6674 37.3476C37.0337 38.4495 38.8532 39.0814 40.6609 39.0814C43.7753 39.0814 45.1407 37.0681 46.2376 35.4501C47.6273 33.4015 48.9391 31.4662 53.9115 31.4662C55.616 31.4662 61.1776 31.8338 61.1776 36.557C61.1776 40.1221 57.8819 42.6524 54.974 44.8847C54.2556 45.4353 53.5775 45.9564 52.9447 46.4935C49.5962 49.3797 45.7517 53.8377 45.7517 62.7629C45.7517 67.7203 46.9543 71.0226 52.8247 71.0226C55.4247 71.0226 57.3876 70.4335 58.6591 69.272C59.7266 68.2968 60.2914 66.9347 60.2914 65.3326C60.2914 60.5171 60.2914 58.1001 65.2026 54.259L65.2865 54.1935C65.503 54.0248 65.7531 53.8293 66.0284 53.6069C66.7308 53.0404 66.8408 52.0123 66.2743 51.3099C65.7078 50.6075 64.6797 50.4975 63.9773 51.064C63.7163 51.2746 63.4805 51.4584 63.2765 51.6179L63.1901 51.685C57.3104 56.284 57.0242 59.6972 57.0242 65.3335C57.0242 66.0577 57.0242 67.7555 52.8247 67.7555C50.7736 67.7555 50.1492 67.3267 49.8345 66.9524C49.2857 66.3003 49.0188 64.9298 49.0188 62.7629C49.0188 55.209 52.082 51.5508 55.068 48.9768C55.6311 48.4993 56.2782 48.0025 56.9638 47.4763C60.2964 44.9174 64.4456 41.7326 64.4456 36.557C64.4456 31.4796 60.3107 28.1991 53.9115 28.1991C47.2077 28.1991 45.0845 31.3303 43.5336 33.6163C42.4736 35.1798 41.9902 35.8143 40.6609 35.8143C38.9329 35.8143 36.3615 34.7476 36.3615 31.8103C36.3615 29.9027 37.4491 26.9654 40.5031 24.4427C42.8496 22.5049 47.1314 20.1936 54.2103 20.1936C65.649 20.1936 73.6369 26.2311 73.6369 34.8752C73.6369 38.8632 71.9122 42.8613 68.51 46.7596C67.9158 47.4393 67.9863 48.4708 68.6653 49.0641V49.0641Z" fill="white"/>
</svg>
