<svg width="110" height="110" viewBox="0 0 110 110" fill="none" xmlns="http://www.w3.org/2000/svg">
<path d="M55 0C24.6717 0 0 24.6717 0 55C0 65.3463 2.87481 75.3902 8.32827 84.1119C6.15577 91.7231 2.23173 106.12 2.18942 106.271C1.98635 107.015 2.20423 107.811 2.76058 108.346C3.31692 108.881 4.12077 109.071 4.85269 108.847L26.6538 102.141C35.1937 107.286 44.9731 110 55 110C85.3283 110 110 85.3283 110 55C110 24.6717 85.3283 0 55 0ZM55 105.769C45.4406 105.769 36.1287 103.097 28.069 98.046C27.7285 97.8323 27.3371 97.7244 26.9458 97.7244C26.7363 97.7244 26.5269 97.7562 26.3238 97.8175L7.2875 103.677C8.68577 98.5727 11.1988 89.4427 12.6563 84.3637C12.8256 83.7756 12.7304 83.141 12.3983 82.6269C7.05481 74.4044 4.23077 64.8513 4.23077 55C4.23077 27.0071 27.0071 4.23077 55 4.23077C82.9929 4.23077 105.769 27.0071 105.769 55C105.769 82.9929 82.9929 105.769 55 105.769Z" fill="#030F26"/>
<path d="M90.9298 67.9589C87.0248 65.7906 83.6994 63.616 81.273 62.0294C79.4199 60.8194 78.0809 59.9458 77.0994 59.4529C74.3557 58.0842 72.2763 59.051 71.4851 59.8506C71.3857 59.95 71.2969 60.0579 71.2207 60.1721C68.3713 64.4473 64.6503 68.5364 63.5609 68.7564C62.3023 68.5596 56.4109 65.211 50.5555 60.335C44.5774 55.3533 40.8163 50.5831 40.2642 47.3339C44.0994 43.3866 45.4807 40.9031 45.4807 38.0769C45.4807 35.1641 38.6861 23.0027 37.4571 21.7737C36.2238 20.5425 33.4463 20.35 29.2007 21.1962C28.7924 21.2787 28.4159 21.4796 28.1198 21.7737C27.6057 22.2877 15.5776 34.5506 21.2934 49.4133C27.5676 65.725 43.6721 84.6852 64.204 87.7652C66.5373 88.1142 68.7246 88.2877 70.7723 88.2877C82.8511 88.2877 89.9799 82.2102 91.9874 70.1546C92.1376 69.2725 91.7124 68.3925 90.9298 67.9589ZM64.8323 83.581C43.12 80.3254 29.444 58.8141 25.2428 47.8944C21.0755 37.0637 28.7607 27.4069 30.6899 25.2239C32.2596 24.9573 33.9117 24.8452 34.6013 24.9531C36.0419 26.9564 41.0299 36.3804 41.2499 38.0769C41.2499 39.1875 40.8882 40.7339 36.5813 45.0429C36.1836 45.4385 35.9615 45.9758 35.9615 46.5385C35.9615 57.6146 59.3238 72.9808 63.4615 72.9808C67.0598 72.9808 71.7517 66.9329 74.4234 62.9919C74.5778 62.9983 74.838 63.0512 75.2082 63.2373C75.9698 63.6202 77.2898 64.4812 78.9588 65.5727C81.163 67.0133 84.0907 68.9256 87.5473 70.9077C85.9776 78.4596 81.5903 86.0983 64.8323 83.581Z" fill="#030F26"/>
</svg>
