<svg width="32" height="38" viewBox="0 0 32 38" fill="none" xmlns="http://www.w3.org/2000/svg">
<path d="M27.7025 4.91868C27.6961 4.91868 27.6898 4.91868 27.6841 4.91868C27.6784 4.91868 27.6739 4.91102 27.6675 4.90912C25.3973 4.12022 23.3139 2.87209 21.5472 1.24252L20.6796 0.370518C20.2415 -0.0649532 19.5542 -0.123466 19.0489 0.231635C18.1183 0.758101 17.0694 1.04019 16.0002 1.05143C14.9311 1.04019 13.8822 0.758329 12.9515 0.232242C12.4464 -0.122707 11.7595 -0.0644219 11.3214 0.370442L10.4538 1.23805C8.68907 2.87072 6.60483 4.11961 4.33284 4.90586C4.32646 4.90586 4.32267 4.91352 4.31629 4.91542C4.31015 4.91511 4.304 4.91511 4.29785 4.91542C4.15199 4.97788 0.712158 6.41559 0.712158 11.8804V15.7024C0.71231 15.7709 0.723466 15.8388 0.745247 15.9037C0.859238 16.2476 1.58803 17.744 5.54947 17.744C6.04953 17.744 6.6018 17.7198 7.21015 17.6669C7.53148 19.5434 7.70163 21.4426 7.71909 23.3464C7.7713 27.2299 7.42986 31.1086 6.69993 34.9232C6.48895 35.8929 7.06186 36.8612 8.0134 37.1431C9.98896 37.6651 12.0217 37.9401 14.0649 37.9617C14.0719 37.9617 14.0777 37.9655 14.0847 37.9655C14.0916 37.9655 14.0935 37.9655 14.098 37.9655C14.6878 37.9871 15.3159 37.9999 15.9956 37.9999C16.6753 37.9999 17.3034 37.9871 17.8932 37.9655C17.8977 37.9655 17.9015 37.9655 17.9066 37.9655C17.9117 37.9655 17.9193 37.9617 17.9263 37.9617C19.9696 37.9401 22.0023 37.6652 23.9778 37.1431C24.933 36.865 25.5105 35.8955 25.3003 34.9232C24.5703 31.1086 24.2288 27.2298 24.281 23.3464C24.2987 21.4426 24.4691 19.5434 24.7907 17.6669C25.399 17.7198 25.9513 17.744 26.4513 17.744C30.4122 17.744 31.1416 16.2477 31.2556 15.9037C31.2771 15.8388 31.2881 15.7708 31.288 15.7024V11.8804C31.2882 6.41566 27.8484 4.97795 27.7025 4.91868ZM12.2234 1.27766C13.3681 1.95348 14.6709 2.31496 16.0002 2.32551C17.3307 2.31466 18.6344 1.9509 19.7783 1.27129L20.3662 1.85923C19.9987 2.85425 18.7265 5.71244 16.0002 6.73866C13.2872 5.71631 12.0075 2.85805 11.6354 1.86052L12.2234 1.27766ZM1.98617 15.5452V11.8805C1.98617 8.5726 3.3876 7.0527 4.20678 6.44564C5.39071 9.68853 6.32031 13.0186 6.98726 16.4058C3.15506 16.7185 2.1633 15.7687 1.98617 15.5452ZM23.0072 23.3452C22.9544 27.3166 23.3045 31.2831 24.0518 35.1839C24.1227 35.5056 23.9336 35.8275 23.618 35.9221C22.9996 36.1025 22.3699 36.2422 21.7332 36.34V16.3268C21.7332 15.9749 21.448 15.6898 21.0962 15.6898C20.7444 15.6898 20.4592 15.975 20.4592 16.3268V36.5101C19.8929 36.5738 19.2566 36.6229 18.5483 36.6597V15.0528C18.5483 14.7009 18.2631 14.4158 17.9113 14.4158C17.5595 14.4158 17.2743 14.701 17.2743 15.0528V36.7107C16.8692 36.7209 16.4463 36.7267 16.0003 36.7267C15.5545 36.7267 15.1314 36.7209 14.7263 36.7107V15.0528C14.7263 14.7009 14.4411 14.4158 14.0894 14.4158C13.7375 14.4158 13.4524 14.701 13.4524 15.0528V36.6598C12.7441 36.6229 12.1077 36.5713 11.5414 36.5102V16.3268C11.5414 15.9749 11.2562 15.6898 10.9045 15.6898C10.5527 15.6898 10.2675 15.975 10.2675 16.3268V36.34C9.63075 36.2426 9.00107 36.1034 8.38262 35.9234C8.06706 35.8288 7.87793 35.5069 7.94882 35.1852C8.69621 31.2844 9.04622 27.3179 8.99348 23.3465C8.99348 16.1484 6.21103 8.15922 5.36255 5.89276C7.27572 5.15091 9.05525 4.10231 10.6312 2.788C11.2472 4.24802 12.7753 7.01832 15.7991 8.02603C15.9276 8.06936 16.0668 8.06936 16.1954 8.02603C19.2192 7.01832 20.7474 4.24802 21.3634 2.788C22.9414 4.10223 24.723 5.15046 26.6383 5.89147C25.7902 8.15914 23.0072 16.1509 23.0072 23.3452ZM30.0142 15.5324C29.8059 15.7948 28.7873 16.7159 25.0131 16.4064C25.68 13.0192 26.6097 9.68906 27.7936 6.44625C28.6128 7.0527 30.0142 8.57253 30.0142 11.8805V15.5324Z" fill="#FEFEFE"/>
<path d="M10.9044 5.51109C10.9044 5.34185 10.8371 5.17959 10.7173 5.06006C10.4685 4.81136 10.0653 4.81136 9.8166 5.06006C9.11505 5.55382 8.33889 5.93191 7.51766 6.17993C7.18343 6.29111 7.00265 6.65213 7.11384 6.98636C7.22502 7.3206 7.58604 7.50137 7.92027 7.39019C8.13049 7.32014 9.99494 6.68439 10.7174 5.96204C10.8371 5.84259 10.9044 5.68033 10.9044 5.51109Z" fill="#FEFEFE"/>
<path d="M24.906 6.65553C24.8602 6.43233 24.6988 6.25056 24.4826 6.17862C23.6614 5.93068 22.8851 5.55258 22.1837 5.05875C22.0238 4.89315 21.7869 4.82674 21.5642 4.88503C21.3414 4.94331 21.1675 5.11726 21.1092 5.34C21.0508 5.56275 21.1173 5.79953 21.2829 5.95952C22.0052 6.68315 23.8698 7.3189 24.08 7.38895C24.2962 7.4609 24.5344 7.41195 24.7047 7.26069C24.8751 7.10936 24.9519 6.87865 24.906 6.65553Z" fill="#FEFEFE"/>
<path d="M9.23723 11.2885C8.99825 11.1892 8.72291 11.2445 8.54069 11.4282C8.42184 11.5487 8.35544 11.7113 8.35597 11.8804C8.35392 11.9212 8.35817 11.962 8.36872 12.0015C8.37562 12.0426 8.3861 12.0831 8.39991 12.1225C8.41896 12.1619 8.44021 12.2002 8.46358 12.2372C8.48726 12.2704 8.51276 12.3024 8.54001 12.3328C8.79121 12.5791 9.19337 12.5791 9.44457 12.3328H9.44518C9.47242 12.3024 9.49792 12.2704 9.5216 12.2372C9.54543 12.2015 9.56471 12.1631 9.5789 12.1225C9.59833 12.0847 9.61108 12.0438 9.61647 12.0015C9.62436 11.9616 9.62884 11.9211 9.62982 11.8804C9.63142 11.6216 9.47622 11.3877 9.23723 11.2885Z" fill="#FEFEFE"/>
<path d="M10.8406 10.3219C10.6833 10.007 10.3006 9.87928 9.98571 10.0365C9.67083 10.1938 9.5431 10.5765 9.70035 10.8914L10.3373 12.1654C10.439 12.3691 10.6417 12.503 10.8689 12.5168C11.0962 12.5305 11.3135 12.422 11.439 12.232C11.5646 12.0421 11.5792 11.7996 11.4775 11.5959L10.8406 10.3219Z" fill="#FEFEFE"/>
<path d="M12.1112 9.04786C12.0095 8.84416 11.8067 8.71021 11.5795 8.69648C11.3523 8.68274 11.1349 8.79127 11.0094 8.98123C10.8839 9.17118 10.8692 9.41366 10.9709 9.61736L12.245 12.1654C12.3466 12.3691 12.5494 12.503 12.7766 12.5168C13.0038 12.5305 13.2212 12.422 13.3467 12.232C13.4722 12.042 13.4869 11.7996 13.3852 11.5959L12.1112 9.04786Z" fill="#FEFEFE"/>
<path d="M21.7332 8.05859H19.1851C18.4815 8.05859 17.9111 8.629 17.9111 9.3326V12.1761C17.911 12.6024 18.124 13.0004 18.4787 13.2367L19.7527 14.0858C20.1802 14.3721 20.7381 14.3721 21.1656 14.0858L22.4396 13.2367C22.7944 13.0004 23.0073 12.6024 23.0072 12.1761V9.3326C23.0072 8.62893 22.4368 8.05859 21.7332 8.05859ZM21.7332 12.1774L20.4592 13.0265L19.1851 12.1768V9.3326H21.7332V12.1774Z" fill="#FEFEFE"/>
</svg>
