<svg width="38" height="28" viewBox="0 0 38 28" fill="none" xmlns="http://www.w3.org/2000/svg">
<path d="M11.2029 13.5156C13.4336 13.5156 15.2419 11.707 15.2419 9.47656C15.2419 7.24585 13.4336 5.4375 11.2029 5.4375C8.97217 5.4375 7.16382 7.24585 7.16382 9.47656C7.16675 11.7061 8.97339 13.5127 11.2029 13.5156ZM11.2029 7.00781C12.5706 7.00781 13.6794 8.11646 13.6794 9.48438C13.6794 10.8521 12.5706 11.9609 11.2029 11.9609C9.83496 11.9609 8.72632 10.8521 8.72632 9.48438C8.72681 8.1167 9.83521 7.0083 11.2029 7.00781Z" fill="#FEFEFE"/>
<path d="M11.2031 15.0077C9.55054 14.9955 7.96436 15.6589 6.8125 16.8437C5.64062 18.039 5 19.664 5 21.4296C5.00122 21.8605 5.35034 22.2096 5.78125 22.2109H16.625C17.0559 22.2096 17.405 21.8605 17.4062 21.4296C17.4062 19.664 16.7656 18.039 15.5938 16.8437C14.4419 15.6589 12.856 14.9955 11.2031 15.0077ZM6.61719 20.6484C6.75098 19.6269 7.21143 18.6762 7.92969 17.9374C8.79419 17.0627 9.97314 16.5702 11.2031 16.5702C12.4331 16.5702 13.6121 17.0627 14.4766 17.9374C15.1934 18.6769 15.6538 19.6274 15.7891 20.6484H6.61719Z" fill="#FEFEFE"/>
<path d="M33.5938 0H3.90625C1.74927 0.000976563 0.000976562 1.74927 0 3.90625V23.75C0.000976562 25.907 1.74927 27.6553 3.90625 27.6563H33.5938C35.7507 27.6553 37.499 25.907 37.5 23.75V3.90625C37.499 1.74927 35.7507 0.000976563 33.5938 0ZM35.9375 23.75C35.9338 25.0427 34.8865 26.0901 33.5938 26.0938H3.90625C2.61353 26.0901 1.56616 25.0427 1.5625 23.75V3.90625C1.56616 2.61353 2.61353 1.56616 3.90625 1.5625H33.5938C34.8865 1.56616 35.9338 2.61353 35.9375 3.90625V23.75Z" fill="#FEFEFE"/>
<path d="M31.6719 13.0469H22.5703C22.1389 13.0469 21.7891 13.3965 21.7891 13.8281C21.7891 14.2598 22.1389 14.6094 22.5703 14.6094H31.6719C32.1033 14.6094 32.4531 14.2598 32.4531 13.8281C32.4531 13.3965 32.1033 13.0469 31.6719 13.0469Z" fill="#FEFEFE"/>
<path d="M31.6719 18.0469H22.5703C22.1389 18.0469 21.7891 18.3965 21.7891 18.8281C21.7891 19.2598 22.1389 19.6094 22.5703 19.6094H31.6719C32.1033 19.6094 32.4531 19.2598 32.4531 18.8281C32.4531 18.3965 32.1033 18.0469 31.6719 18.0469Z" fill="#FEFEFE"/>
<path d="M31.6719 8.04688H22.5703C22.1389 8.04688 21.7891 8.39648 21.7891 8.82812C21.7891 9.25976 22.1389 9.60937 22.5703 9.60937H31.6719C32.1033 9.60937 32.4531 9.25976 32.4531 8.82812C32.4531 8.39648 32.1033 8.04688 31.6719 8.04688Z" fill="#FEFEFE"/>
</svg>
