<svg width="38" height="28" viewBox="0 0 38 28" fill="none" xmlns="http://www.w3.org/2000/svg">
<path d="M8.54854 11.5991H3.01546C2.70804 11.5991 2.45881 11.8483 2.45881 12.1558V14.6134C2.45881 14.6139 2.45874 14.6143 2.45874 14.6148C2.45874 14.6153 2.45881 14.6157 2.45881 14.6162V17.0738C2.45881 17.3812 2.70804 17.6304 3.01546 17.6304H8.54854C8.85595 17.6304 9.10518 17.3812 9.10518 17.0738V12.1556C9.10518 11.8483 8.85595 11.5991 8.54854 11.5991ZM4.30322 16.5173H3.5721V15.1715H4.30322V16.5173ZM6.14749 14.6149V16.5173H5.41651V14.6149C5.41651 14.3074 5.16728 14.0582 4.85987 14.0582H3.5721V12.7124H7.9919V14.0582H6.70413C6.39671 14.0582 6.14749 14.3074 6.14749 14.6149ZM7.99197 16.5172H7.26077V15.1714H7.99197V16.5172Z" fill="#FEFEFE"/>
<path d="M22.6886 18.9761C22.0157 18.9761 21.368 19.2022 20.8436 19.6077C20.3334 19.2123 19.6939 18.9761 18.9999 18.9761C17.337 18.9761 15.9841 20.3289 15.9841 21.9919C15.9841 23.6548 17.337 25.0077 18.9999 25.0077C19.694 25.0077 20.3334 24.7714 20.8436 24.376C21.368 24.7816 22.0157 25.0077 22.6886 25.0077C24.3515 25.0077 25.7044 23.6548 25.7044 21.9919C25.7044 20.3289 24.3515 18.9761 22.6886 18.9761ZM18.9999 23.8944C17.9509 23.8944 17.0974 23.0409 17.0974 21.9919C17.0974 20.9428 17.9509 20.0894 18.9999 20.0894C20.049 20.0894 20.9025 20.9429 20.9025 21.9919C20.9025 23.041 20.0489 23.8944 18.9999 23.8944ZM22.6886 23.8944C22.29 23.8944 21.9054 23.7686 21.586 23.5415C21.8586 23.0883 22.0157 22.5582 22.0157 21.9919C22.0157 21.4256 21.8586 20.8954 21.586 20.4423C21.9054 20.2151 22.29 20.0894 22.6886 20.0894C23.7377 20.0893 24.5911 20.9428 24.5911 21.9919C24.5911 23.041 23.7377 23.8944 22.6886 23.8944Z" fill="#FEFEFE"/>
<path d="M4.24504 19.5911H3.01538C2.70797 19.5911 2.45874 19.8403 2.45874 20.1477C2.45874 20.4551 2.70797 20.7043 3.01538 20.7043H4.24504C4.55245 20.7043 4.80168 20.4551 4.80168 20.1477C4.80168 19.8403 4.55245 19.5911 4.24504 19.5911Z" fill="#FEFEFE"/>
<path d="M7.31909 19.5911H6.08936C5.78194 19.5911 5.53271 19.8403 5.53271 20.1477C5.53271 20.4551 5.78194 20.7043 6.08936 20.7043H7.31901C7.6265 20.7043 7.87573 20.4551 7.87573 20.1477C7.87573 19.8403 7.6265 19.5911 7.31909 19.5911Z" fill="#FEFEFE"/>
<path d="M10.3931 19.5911H9.16333C8.85592 19.5911 8.60669 19.8403 8.60669 20.1477C8.60669 20.4551 8.85592 20.7043 9.16333 20.7043H10.3931C10.7005 20.7043 10.9497 20.4551 10.9497 20.1477C10.9497 19.8403 10.7005 19.5911 10.3931 19.5911Z" fill="#FEFEFE"/>
<path d="M13.4672 19.5911H12.2375C11.9301 19.5911 11.6809 19.8403 11.6809 20.1477C11.6809 20.4551 11.9301 20.7043 12.2375 20.7043H13.4672C13.7746 20.7043 14.0238 20.4551 14.0238 20.1477C14.0238 19.8403 13.7746 19.5911 13.4672 19.5911Z" fill="#FEFEFE"/>
<path d="M6.70479 22.05H3.01611C2.7087 22.05 2.45947 22.2993 2.45947 22.6067C2.45947 22.9141 2.7087 23.1633 3.01611 23.1633H6.70479C7.0122 23.1633 7.26143 22.9141 7.26143 22.6067C7.26143 22.2993 7.0122 22.05 6.70479 22.05Z" fill="#FEFEFE"/>
<path d="M12.2373 22.05H8.54858C8.24117 22.05 7.99194 22.2993 7.99194 22.6067C7.99194 22.9141 8.24117 23.1633 8.54858 23.1633H12.2373C12.5447 23.1633 12.7939 22.9141 12.7939 22.6067C12.7939 22.2993 12.5447 22.05 12.2373 22.05Z" fill="#FEFEFE"/>
<path d="M6.70479 23.8945H3.01611C2.7087 23.8945 2.45947 24.1438 2.45947 24.4512C2.45947 24.7586 2.7087 25.0078 3.01611 25.0078H6.70479C7.0122 25.0078 7.26143 24.7586 7.26143 24.4512C7.26143 24.1438 7.0122 23.8945 6.70479 23.8945Z" fill="#FEFEFE"/>
<path d="M36.2139 0.532959H11.6227C10.6378 0.532959 9.83651 1.33422 9.83651 2.31911V9.13981H7.20159C6.89418 9.13981 6.64495 9.38904 6.64495 9.69645C6.64495 10.0039 6.89418 10.2531 7.20159 10.2531H26.3773C26.7484 10.2531 27.0502 10.5549 27.0502 10.926V25.6806C27.0502 26.0517 26.7484 26.3535 26.3773 26.3535H1.78615C1.41513 26.3535 1.11328 26.0517 1.11328 25.6806V10.926C1.11328 10.5549 1.41513 10.2531 1.78615 10.2531H4.97733C5.28475 10.2531 5.53397 10.0039 5.53397 9.69645C5.53397 9.38904 5.28475 9.13981 4.97733 9.13981H1.78615C0.801266 9.13981 0 9.94107 0 10.926V25.6806C0 26.6655 0.801266 27.4668 1.78615 27.4668H26.3773C27.3622 27.4668 28.1634 26.6655 28.1634 25.6806V18.8599H36.2138C37.1987 18.8599 37.9999 18.0587 37.9999 17.0738V2.31911C38 1.33422 37.1987 0.532959 36.2139 0.532959ZM10.9498 2.31911C10.9498 1.94809 11.2516 1.64624 11.6227 1.64624H36.2138C36.5848 1.64624 36.8866 1.94809 36.8866 2.31911V3.60673H10.9498V2.31911ZM36.8867 17.0738C36.8867 17.4448 36.5849 17.7467 36.2139 17.7467H28.1635V10.926C28.1635 9.94107 27.3622 9.13981 26.3773 9.13981H10.9498V7.79385H36.8867V17.0738ZM36.8867 6.68057H10.9498V4.72001H36.8867V6.68057Z" fill="#FEFEFE"/>
<path d="M34.9844 12.8284H32.5251C32.2177 12.8284 31.9685 13.0776 31.9685 13.385V15.8443C31.9685 16.1517 32.2177 16.4009 32.5251 16.4009H34.9844C35.2918 16.4009 35.541 16.1517 35.541 15.8443V13.385C35.541 13.0776 35.2918 12.8284 34.9844 12.8284ZM34.4277 15.2876H33.0818V13.9417H34.4277V15.2876Z" fill="#FEFEFE"/>
</svg>
