<svg width="45" height="45" viewBox="0 0 45 45" fill="none" xmlns="http://www.w3.org/2000/svg">
<path d="M41.5332 28.1567C40.9142 28.1567 40.4125 28.6584 40.4125 29.2774V39.2283C40.4103 41.0845 38.9065 42.5887 37.0503 42.5905H5.60367C3.74745 42.5887 2.24366 41.0845 2.24147 39.2283V10.0231C2.24366 8.16732 3.74745 6.66309 5.60367 6.6609H15.5546C16.1736 6.6609 16.6753 6.1592 16.6753 5.54017C16.6753 4.92157 16.1736 4.41943 15.5546 4.41943H5.60367C2.51027 4.42294 0.00350229 6.9297 0 10.0231V39.2287C0.00350229 42.3221 2.51027 44.8289 5.60367 44.8324H37.0503C40.1437 44.8289 42.6505 42.3221 42.654 39.2287V29.2774C42.654 28.6584 42.1523 28.1567 41.5332 28.1567Z" fill="#FEFEFE"/>
<path d="M42.2099 1.53579C40.2403 -0.433806 37.047 -0.433806 35.0774 1.53579L15.0829 21.5304C14.9458 21.6674 14.8469 21.8373 14.7952 22.0238L12.1659 31.5163C12.0578 31.9055 12.1676 32.3222 12.4531 32.6081C12.739 32.8936 13.1557 33.0034 13.5449 32.8957L23.0374 30.266C23.2239 30.2143 23.3938 30.1154 23.5308 29.9783L43.525 9.98332C45.4915 8.01241 45.4915 4.82182 43.525 2.8509L42.2099 1.53579ZM17.5248 22.2588L33.8889 5.89439L39.1664 11.1719L22.8019 27.5364L17.5248 22.2588ZM16.4706 24.3742L20.687 28.591L14.8548 30.2069L16.4706 24.3742ZM41.9402 8.39853L40.7516 9.58712L35.4736 4.30917L36.6627 3.12058C37.7567 2.02655 39.5306 2.02655 40.6246 3.12058L41.9402 4.43569C43.0325 5.53103 43.0325 7.30363 41.9402 8.39853Z" fill="#FEFEFE"/>
</svg>
