<svg width="110" height="75" viewBox="0 0 110 75" fill="none" xmlns="http://www.w3.org/2000/svg">
<path d="M101.406 0.0337067H39.1162C37.9296 0.0337067 36.9677 0.995564 36.9677 2.18215C36.9677 3.36873 37.9296 4.33058 39.1162 4.33058H101.406C101.518 4.33058 101.627 4.33896 101.736 4.34734L95.7329 10.3507H67.7082C66.5214 10.3507 65.5595 11.3126 65.5595 12.4991C65.5595 13.6857 66.5214 14.6476 67.7082 14.6476H91.4359L61.4889 44.5944C57.9107 48.1724 52.0891 48.1727 48.5111 44.5944L8.26397 4.34734C8.3731 4.33896 8.48246 4.33058 8.59375 4.33058H19.9805C21.1671 4.33058 22.1289 3.36873 22.1289 2.18215C22.1289 0.995564 21.1671 0.0337067 19.9805 0.0337067H8.59375C3.85515 0.0337067 0 3.88886 0 8.62745V65.7848C0 70.5235 3.85515 74.3788 8.59375 74.3788H101.406C106.145 74.3788 110 70.5235 110 65.7848V8.62745C110 3.88886 106.145 0.0337067 101.406 0.0337067ZM4.29687 65.7848V8.62745C4.29687 7.99215 4.4391 7.39082 4.68768 6.84766L34.59 36.7501L4.44705 66.8929C4.35231 66.5387 4.29687 66.1688 4.29687 65.7848ZM101.406 70.0818H8.59375C8.21004 70.0818 7.83987 70.0263 7.48561 69.9314L37.6286 39.7886L45.473 47.633C48.0994 50.2594 51.5496 51.5728 55 51.5728C58.4504 51.5728 61.9003 50.2594 64.5274 47.633L72.3714 39.7886L102.515 69.9314C102.16 70.0263 101.79 70.0818 101.406 70.0818ZM105.703 65.7848C105.703 66.1688 105.647 66.5387 105.553 66.8929L75.4099 36.7503L105.312 6.84766C105.561 7.39082 105.703 7.99215 105.703 8.62745V65.7848Z" fill="#030F26"/>
</svg>
