<svg width="204" height="138" viewBox="0 0 204 138" fill="none" xmlns="http://www.w3.org/2000/svg">
<path d="M188.062 0.0625H72.5427C70.3421 0.0625 68.5583 1.84631 68.5583 4.04688C68.5583 6.24745 70.3421 8.03125 72.5427 8.03125H188.062C188.269 8.03125 188.472 8.04679 188.674 8.06233L177.541 19.1959H125.568C123.367 19.1959 121.583 20.9797 121.583 23.1802C121.583 25.3808 123.367 27.1646 125.568 27.1646H169.572L114.034 82.7024C107.398 89.338 96.6016 89.3384 89.966 82.7024L15.3259 8.06233C15.5283 8.04679 15.7311 8.03125 15.9375 8.03125H37.0547C39.2553 8.03125 41.0391 6.24745 41.0391 4.04688C41.0391 1.84631 39.2553 0.0625 37.0547 0.0625H15.9375C7.14956 0.0625 0 7.21206 0 16V122.001C0 130.789 7.14956 137.939 15.9375 137.939H188.062C196.85 137.939 204 130.789 204 122.001V16C204 7.21206 196.85 0.0625 188.062 0.0625ZM7.96875 122.001V16C7.96875 14.8218 8.23252 13.7066 8.69351 12.6993L64.1488 68.1547L8.24726 124.056C8.07155 123.399 7.96875 122.713 7.96875 122.001ZM188.062 129.97H15.9375C15.2259 129.97 14.5394 129.867 13.8824 129.691L69.7839 73.7898L84.3317 88.3375C89.2026 93.2084 95.6011 95.6441 102 95.6441C108.399 95.6441 114.797 93.2084 119.669 88.3375L134.216 73.7898L190.118 129.691C189.461 129.867 188.774 129.97 188.062 129.97ZM196.031 122.001C196.031 122.713 195.928 123.399 195.753 124.056L139.851 68.1551L195.306 12.6993C195.767 13.7066 196.031 14.8218 196.031 16V122.001Z" fill="#030F26"/>
</svg>
