<svg width="38" height="38" viewBox="0 0 38 38" fill="none" xmlns="http://www.w3.org/2000/svg">
<path d="M20.5272 23.9616L18.4305 22.3038C18.3513 22.2404 18.2604 22.1933 18.163 22.1651C18.0655 22.137 17.9635 22.1284 17.8627 22.1398C17.762 22.1513 17.6644 22.1826 17.5758 22.2319C17.4872 22.2812 17.4092 22.3475 17.3463 22.4271C17.2834 22.5066 17.2369 22.5979 17.2094 22.6955C17.1819 22.7931 17.1741 22.8952 17.1862 22.9959C17.1984 23.0966 17.2303 23.1939 17.2802 23.2822C17.3301 23.3705 17.397 23.448 17.477 23.5104L17.5565 23.5732C16.7677 23.3247 16.0562 22.8771 15.4907 22.2735C14.9251 21.67 14.5247 20.9309 14.328 20.1275C14.1314 19.3241 14.145 18.4837 14.3678 17.6871C14.5905 16.8906 15.0147 16.1649 15.5996 15.5801C15.7396 15.435 15.8171 15.2408 15.8153 15.0392C15.8135 14.8376 15.7326 14.6447 15.59 14.5022C15.4474 14.3597 15.2545 14.2788 15.0529 14.2771C14.8513 14.2754 14.6571 14.353 14.5121 14.493C13.6876 15.3174 13.1062 16.353 12.8317 17.4862C12.5572 18.6193 12.6002 19.8062 12.956 20.9165C13.3119 22.0268 13.9667 23.0176 14.8488 23.7801C15.7308 24.5426 16.8059 25.0473 17.9559 25.2389L17.4761 25.618C17.3961 25.6804 17.3292 25.7579 17.2793 25.8462C17.2294 25.9345 17.1975 26.0318 17.1853 26.1325C17.1732 26.2332 17.1811 26.3353 17.2085 26.4329C17.236 26.5305 17.2825 26.6218 17.3454 26.7013C17.4083 26.7809 17.4863 26.8473 17.5749 26.8966C17.6636 26.9459 17.7611 26.9771 17.8618 26.9886C17.9626 27 18.0647 26.9914 18.1621 26.9633C18.2595 26.9352 18.3504 26.888 18.4296 26.8246L20.5272 25.1668C20.6182 25.0948 20.6918 25.0032 20.7424 24.8987C20.793 24.7942 20.8193 24.6796 20.8193 24.5635C20.8193 24.4475 20.793 24.3329 20.7424 24.2284C20.6918 24.1239 20.6182 24.0323 20.5272 23.9603V23.9616Z" fill="#FEFEFE"/>
<path d="M19.0004 8.63818C16.9511 8.63818 14.9477 9.24589 13.2438 10.3845C11.5398 11.523 10.2117 13.1413 9.42742 15.0347C8.64316 16.9281 8.43796 19.0115 8.83777 21.0214C9.23759 23.0314 10.2244 24.8777 11.6736 26.3268C13.1227 27.776 14.969 28.7628 16.979 29.1626C18.989 29.5625 21.0724 29.3573 22.9657 28.573C24.8591 27.7887 26.4774 26.4606 27.6159 24.7567C28.7545 23.0527 29.3622 21.0493 29.3622 19C29.3592 16.2528 28.2665 13.619 26.324 11.6764C24.3814 9.73386 21.7476 8.64121 19.0004 8.63818ZM19.0004 27.8239C17.2552 27.8239 15.5492 27.3064 14.0981 26.3368C12.647 25.3672 11.516 23.9891 10.8482 22.3768C10.1803 20.7644 10.0056 18.9902 10.346 17.2785C10.6865 15.5668 11.5269 13.9945 12.761 12.7605C13.995 11.5264 15.5673 10.686 17.279 10.3455C18.9907 10.0051 20.7649 10.1798 22.3772 10.8477C23.9896 11.5155 25.3677 12.6465 26.3373 14.0976C27.3069 15.5487 27.8244 17.2547 27.8244 19C27.8218 21.3394 26.8914 23.5824 25.2371 25.2366C23.5828 26.8909 21.3399 27.8214 19.0004 27.8239Z" fill="#FEFEFE"/>
<path d="M35.9467 15.9137H32.8992C32.5434 14.2947 31.9038 12.7515 31.0099 11.3556L33.1659 9.20181C33.2373 9.13044 33.294 9.04569 33.3327 8.95239C33.3714 8.85909 33.3913 8.75909 33.3913 8.65809C33.3913 8.55709 33.3714 8.45708 33.3327 8.36379C33.294 8.27049 33.2373 8.18573 33.1659 8.11436L29.8881 4.83706C29.7439 4.69298 29.5485 4.61205 29.3446 4.61205C29.1408 4.61205 28.9453 4.69298 28.8011 4.83706L26.646 6.99044C25.2501 6.09639 23.7069 5.45674 22.0879 5.10113V2.05406C22.088 1.95307 22.0681 1.85306 22.0295 1.75975C21.9909 1.66643 21.9342 1.58165 21.8628 1.51023C21.7914 1.43882 21.7066 1.38219 21.6133 1.34357C21.52 1.30495 21.42 1.2851 21.319 1.28516H16.6836C16.5826 1.2851 16.4826 1.30495 16.3893 1.34357C16.296 1.38219 16.2112 1.43882 16.1398 1.51023C16.0684 1.58165 16.0117 1.66643 15.9731 1.75975C15.9345 1.85306 15.9146 1.95307 15.9147 2.05406V5.10157C14.2957 5.45718 12.7524 6.09683 11.3566 6.99088L9.20279 4.83487C9.05861 4.69079 8.86312 4.60985 8.65929 4.60985C8.45545 4.60985 8.25996 4.69079 8.11578 4.83487L4.83804 8.11216C4.76658 8.18354 4.70989 8.26829 4.67121 8.36159C4.63253 8.45489 4.61262 8.55489 4.61262 8.65589C4.61262 8.75689 4.63253 8.85689 4.67121 8.95019C4.70989 9.04349 4.76658 9.12825 4.83804 9.19962L6.99142 11.3548C6.09749 12.7507 5.45784 14.2938 5.10211 15.9128H2.05504C1.95405 15.9128 1.85404 15.9326 1.76072 15.9712C1.66741 16.0099 1.58262 16.0665 1.51121 16.1379C1.4398 16.2093 1.38317 16.2941 1.34455 16.3874C1.30592 16.4807 1.28608 16.5807 1.28613 16.6817V21.3171C1.28608 21.4181 1.30592 21.5181 1.34455 21.6115C1.38317 21.7048 1.4398 21.7896 1.51121 21.861C1.58262 21.9324 1.66741 21.989 1.76072 22.0276C1.85404 22.0663 1.95405 22.0861 2.05504 22.086H5.10254C5.45828 23.705 6.09792 25.2482 6.99186 26.6441L4.83628 28.8001C4.76482 28.8715 4.70813 28.9563 4.66945 29.0496C4.63077 29.1429 4.61087 29.2429 4.61087 29.3439C4.61087 29.4449 4.63077 29.5449 4.66945 29.6382C4.70813 29.7315 4.76482 29.8162 4.83628 29.8876L8.11402 33.1649C8.2582 33.309 8.45369 33.3899 8.65753 33.3899C8.86136 33.3899 9.05685 33.309 9.20103 33.1649L11.3557 31.0093C12.7516 31.9034 14.2948 32.543 15.9138 32.8986V35.9461C15.9137 36.0471 15.9336 36.1471 15.9722 36.2404C16.0108 36.3338 16.0675 36.4185 16.1389 36.49C16.2103 36.5614 16.2951 36.618 16.3884 36.6566C16.4817 36.6952 16.5817 36.7151 16.6827 36.715H21.3181C21.4191 36.7151 21.5191 36.6952 21.6124 36.6566C21.7057 36.618 21.7905 36.5614 21.8619 36.49C21.9334 36.4185 21.99 36.3338 22.0286 36.2404C22.0672 36.1471 22.0871 36.0471 22.087 35.9461V32.8982C23.706 32.5426 25.2493 31.9029 26.6451 31.0089L28.8011 33.1644C28.9453 33.3085 29.1408 33.3895 29.3446 33.3895C29.5485 33.3895 29.7439 33.3085 29.8881 33.1644L33.1659 29.8871C33.2373 29.8158 33.294 29.731 33.3327 29.6377C33.3714 29.5444 33.3913 29.4444 33.3913 29.3434C33.3913 29.2424 33.3714 29.1424 33.3327 29.0491C33.294 28.9558 33.2373 28.8711 33.1659 28.7997L31.0103 26.645C31.9042 25.2491 32.5439 23.7059 32.8996 22.0869H35.9471C36.0481 22.087 36.1481 22.0671 36.2414 22.0285C36.3347 21.9899 36.4195 21.9333 36.4909 21.8618C36.5623 21.7904 36.619 21.7057 36.6576 21.6123C36.6962 21.519 36.7161 21.419 36.716 21.318V16.6826C36.7161 16.5816 36.6962 16.4815 36.6576 16.3882C36.6189 16.2949 36.5622 16.21 36.4908 16.1386C36.4193 16.0672 36.3345 16.0106 36.2411 15.972C36.1478 15.9334 36.0477 15.9136 35.9467 15.9137ZM35.1778 20.5482H32.2665C32.0853 20.5483 31.9099 20.6123 31.7713 20.729C31.6327 20.8458 31.5398 21.0077 31.509 21.1862C31.1925 23.0268 30.4688 24.7734 29.3908 26.2983C29.2865 26.4465 29.2379 26.6266 29.2535 26.8071C29.2691 26.9875 29.3479 27.1567 29.476 27.2847L31.5349 29.3436L29.3446 31.5339L27.2853 29.475C27.1572 29.347 26.988 29.2682 26.8076 29.2526C26.6272 29.2371 26.447 29.2856 26.2989 29.3898C24.774 30.4677 23.0276 31.1916 21.1872 31.5084C21.0086 31.5393 20.8467 31.6322 20.73 31.7708C20.6133 31.9094 20.5493 32.0847 20.5492 32.2659V35.1768H17.4525V32.2659C17.4525 32.0847 17.3884 31.9094 17.2717 31.7708C17.155 31.6322 16.9931 31.5393 16.8145 31.5084C14.9741 31.1916 13.2278 30.4677 11.7028 29.3898C11.5547 29.2856 11.3745 29.2371 11.1941 29.2526C11.0137 29.2682 10.8445 29.347 10.7164 29.475L8.65709 31.5339L6.4668 29.3436L8.52571 27.2847C8.65383 27.1567 8.73263 26.9875 8.74822 26.8071C8.76381 26.6266 8.7152 26.4465 8.61095 26.2983C7.53287 24.7734 6.80916 23.0268 6.49273 21.1862C6.46187 21.0077 6.36896 20.8458 6.23037 20.729C6.09179 20.6123 5.91643 20.5483 5.73524 20.5482H2.82395V17.4515H5.73524C5.91643 17.4515 6.09179 17.3874 6.23037 17.2707C6.36896 17.154 6.46187 16.9921 6.49273 16.8135C6.80916 14.973 7.53287 13.2264 8.61095 11.7014C8.7152 11.5533 8.76381 11.3731 8.74822 11.1927C8.73263 11.0122 8.65383 10.8431 8.52571 10.715L6.4668 8.65611L8.65709 6.46583L10.7164 8.52474C10.8444 8.65293 11.0136 8.73178 11.1941 8.74738C11.3746 8.76297 11.5547 8.71431 11.7028 8.60998C13.2278 7.53201 14.9741 6.80817 16.8145 6.49131C16.9931 6.46046 17.155 6.36754 17.2717 6.22896C17.3884 6.09037 17.4525 5.91502 17.4525 5.73383V2.82297H20.5492V5.73383C20.5493 5.91502 20.6133 6.09037 20.73 6.22896C20.8467 6.36754 21.0086 6.46046 21.1872 6.49131C23.0276 6.80817 24.774 7.53201 26.2989 8.60998C26.447 8.71431 26.6271 8.76297 26.8076 8.74738C26.9881 8.73178 27.1573 8.65293 27.2853 8.52474L29.3446 6.46583L31.5349 8.65611L29.476 10.715C29.3479 10.8431 29.2691 11.0122 29.2535 11.1927C29.2379 11.3731 29.2865 11.5533 29.3908 11.7014C30.4688 13.2264 31.1925 14.973 31.509 16.8135C31.5398 16.9921 31.6327 17.154 31.7713 17.2707C31.9099 17.3874 32.0853 17.4515 32.2665 17.4515H35.1778V20.5482Z" fill="#FEFEFE"/>
<path d="M20.046 12.7432L20.5258 12.364C20.6058 12.3017 20.6727 12.2241 20.7226 12.1358C20.7725 12.0475 20.8045 11.9502 20.8166 11.8495C20.8288 11.7489 20.8209 11.6468 20.7934 11.5491C20.7659 11.4515 20.7194 11.3603 20.6565 11.2807C20.5936 11.2011 20.5156 11.1348 20.427 11.0855C20.3384 11.0362 20.2409 11.0049 20.1401 10.9934C20.0393 10.982 19.9373 10.9906 19.8398 11.0187C19.7424 11.0469 19.6515 11.094 19.5724 11.1575L17.4748 12.8152C17.3837 12.8872 17.3101 12.9789 17.2595 13.0833C17.2089 13.1878 17.1826 13.3024 17.1826 13.4185C17.1826 13.5346 17.2089 13.6491 17.2595 13.7536C17.3101 13.8581 17.3837 13.9498 17.4748 14.0217L19.5715 15.6795C19.6506 15.7429 19.7415 15.7901 19.839 15.8182C19.9364 15.8464 20.0384 15.855 20.1392 15.8435C20.24 15.8321 20.3375 15.8008 20.4261 15.7515C20.5148 15.7022 20.5928 15.6358 20.6556 15.5563C20.7185 15.4767 20.765 15.3855 20.7925 15.2878C20.82 15.1902 20.8279 15.0881 20.8157 14.9874C20.8036 14.8867 20.7716 14.7894 20.7217 14.7012C20.6718 14.6129 20.6049 14.5353 20.5249 14.473L20.4454 14.4102C21.2343 14.6586 21.9458 15.1061 22.5113 15.7097C23.0768 16.3132 23.4773 17.0522 23.674 17.8556C23.8706 18.6589 23.857 19.4994 23.6342 20.2959C23.4115 21.0924 22.9872 21.818 22.4024 22.4028C22.2582 22.5471 22.1772 22.7428 22.1773 22.9469C22.1774 23.1509 22.2585 23.3465 22.4028 23.4907C22.5471 23.6349 22.7428 23.7159 22.9468 23.7158C23.1509 23.7157 23.3465 23.6346 23.4907 23.4903C24.3156 22.6659 24.8973 21.6301 25.172 20.4967C25.4467 19.3633 25.4037 18.1762 25.0477 17.0656C24.6918 15.9551 24.0366 14.9641 23.1542 14.2015C22.2719 13.439 21.1964 12.9344 20.046 12.7432Z" fill="#FEFEFE"/>
</svg>
