<svg width="38" height="38" viewBox="0 0 38 38" fill="none" xmlns="http://www.w3.org/2000/svg">
<path d="M16.0312 36.8125C18.1207 36.8125 19.8504 35.2608 20.1401 33.25H26.4729L25.7052 34.0177L26.5448 34.8573L28.326 33.076C28.442 32.9601 28.5 32.8082 28.5 32.6562C28.5 32.5043 28.442 32.3524 28.326 32.2365L26.5448 30.4552L25.7052 31.2948L26.4729 32.0625H20.1401C19.8504 30.0517 18.1207 28.5 16.0312 28.5C13.7397 28.5 11.875 30.3645 11.875 32.6562C11.875 34.948 13.7397 36.8125 16.0312 36.8125ZM16.0312 29.6875C17.6681 29.6875 19 31.0194 19 32.6562C19 34.2931 17.6681 35.625 16.0312 35.625C14.3944 35.625 13.0625 34.2931 13.0625 32.6562C13.0625 31.0194 14.3944 29.6875 16.0312 29.6875Z" fill="#FEFEFE"/>
<path d="M32.6562 36.8125C34.9478 36.8125 36.8125 34.948 36.8125 32.6562C36.8125 30.3645 34.9478 28.5 32.6562 28.5C30.3647 28.5 28.5 30.3645 28.5 32.6562C28.5 34.948 30.3647 36.8125 32.6562 36.8125ZM32.6562 29.6875C34.2931 29.6875 35.625 31.0194 35.625 32.6562C35.625 34.2931 34.2931 35.625 32.6562 35.625C31.0194 35.625 29.6875 34.2931 29.6875 32.6562C29.6875 31.0194 31.0194 29.6875 32.6562 29.6875Z" fill="#FEFEFE"/>
<path d="M13.6562 14.8438C11.5668 14.8438 9.8371 16.3955 9.54744 18.4062H8.60938C4.51691 18.4062 1.1875 21.7357 1.1875 25.8281C1.1875 29.9206 4.51691 33.25 8.60938 33.25H9.8479L9.0802 34.0177L9.9198 34.8573L11.701 33.076C11.817 32.9601 11.875 32.8082 11.875 32.6562C11.875 32.5043 11.817 32.3524 11.701 32.2365L9.9198 30.4552L9.0802 31.2948L9.8479 32.0625H8.60938C5.17154 32.0625 2.375 29.2657 2.375 25.8281C2.375 22.3906 5.17154 19.5938 8.60938 19.5938H9.54744C9.8371 21.6045 11.5668 23.1562 13.6562 23.1562C15.9478 23.1562 17.8125 21.2918 17.8125 19C17.8125 16.7082 15.9478 14.8438 13.6562 14.8438ZM13.6562 21.9688C12.0194 21.9688 10.6875 20.6369 10.6875 19C10.6875 17.3631 12.0194 16.0312 13.6562 16.0312C15.2931 16.0312 16.625 17.3631 16.625 19C16.625 20.6369 15.2931 21.9688 13.6562 21.9688Z" fill="#FEFEFE"/>
<path d="M15.8573 3.1427L15.0177 3.9823L15.7854 4.75H9.4526C9.16293 2.73921 7.43318 1.1875 5.34375 1.1875C3.05224 1.1875 1.1875 3.05196 1.1875 5.34375C1.1875 7.63554 3.05224 9.5 5.34375 9.5C7.43318 9.5 9.16293 7.94829 9.4526 5.9375H15.7854L15.0177 6.7052L15.8573 7.5448L17.6385 5.76355C17.7545 5.64758 17.8125 5.49567 17.8125 5.34375C17.8125 5.19183 17.7545 5.03992 17.6385 4.92395L15.8573 3.1427ZM5.34375 8.3125C3.70688 8.3125 2.375 6.98062 2.375 5.34375C2.375 3.70688 3.70688 2.375 5.34375 2.375C6.98062 2.375 8.3125 3.70688 8.3125 5.34375C8.3125 6.98062 6.98062 8.3125 5.34375 8.3125Z" fill="#FEFEFE"/>
<path d="M36.8125 12.1719C36.8125 8.07941 33.4831 4.75 29.3906 4.75H26.0776C25.7879 2.73921 24.0582 1.1875 21.9688 1.1875C19.6772 1.1875 17.8125 3.05196 17.8125 5.34375C17.8125 7.63554 19.6772 9.5 21.9688 9.5C24.0582 9.5 25.7879 7.94829 26.0776 5.9375H29.3906C32.8285 5.9375 35.625 8.73433 35.625 12.1719C35.625 15.6094 32.8285 18.4062 29.3906 18.4062H19.8396L20.6073 17.6385L19.7677 16.799L17.9865 18.5802C17.8705 18.6962 17.8125 18.8481 17.8125 19C17.8125 19.1519 17.8705 19.3038 17.9865 19.4198L19.7677 21.201L20.6073 20.3615L19.8396 19.5938H29.3906C33.4831 19.5938 36.8125 16.2643 36.8125 12.1719ZM21.9688 8.3125C20.3319 8.3125 19 6.98062 19 5.34375C19 3.70688 20.3319 2.375 21.9688 2.375C23.6056 2.375 24.9375 3.70688 24.9375 5.34375C24.9375 6.98062 23.6056 8.3125 21.9688 8.3125Z" fill="#FEFEFE"/>
</svg>
