<svg width="32" height="32" viewBox="0 0 32 32" fill="none" xmlns="http://www.w3.org/2000/svg">
<path d="M27.3206 4.68403C21.0815 -1.55516 10.9263 -1.55516 4.68711 4.68403C1.66483 7.7075 0 11.7265 0 16.0008C0 20.2751 1.66483 24.294 4.68711 27.3163C7.80733 30.4365 11.9056 31.996 16.0038 31.996C20.1021 31.996 24.2004 30.4365 27.3206 27.3163C33.5598 21.0771 33.5598 10.9244 27.3206 4.68403ZM25.5677 25.5634C20.2943 30.8369 11.7134 30.8369 6.43994 25.5634C3.88629 23.0098 2.47927 19.6131 2.47927 16.0008C2.47927 12.3884 3.88629 8.99176 6.43994 6.43686C11.7134 1.16337 20.2943 1.16462 25.5677 6.43686C30.84 11.7103 30.84 20.2912 25.5677 25.5634Z" fill="#B50000"/>
<path d="M21.3463 19.427L17.8368 15.9225L21.3463 12.4181C21.8297 11.9346 21.8297 11.1499 21.3475 10.6652C20.8628 10.1792 20.0781 10.1805 19.5935 10.6639L16.0815 14.1709L12.5696 10.6639C12.0849 10.1805 11.3002 10.1792 10.8156 10.6652C10.3321 11.1499 10.3321 11.9346 10.8168 12.4181L14.3263 15.9225L10.8168 19.427C10.3321 19.9104 10.3321 20.6951 10.8156 21.1799C11.0573 21.4228 11.3759 21.5431 11.6932 21.5431C12.0106 21.5431 12.3279 21.4216 12.5697 21.1811L16.0816 17.6741L19.5935 21.1811C19.8353 21.4228 20.1526 21.5431 20.47 21.5431C20.7873 21.5431 21.1059 21.4216 21.3477 21.1799C21.831 20.6951 21.831 19.9104 21.3463 19.427Z" fill="#B50000"/>
</svg>
