<svg id="Capa_1" enable-background="new 0 0 510 510" height="512" viewBox="0 0 510 510" width="512" xmlns="http://www.w3.org/2000/svg"><g><path d="m467.167 107.167c0-26.008-21.159-47.167-47.167-47.167h-75v-60h-180v60h-75c-26.008 0-47.167 21.159-47.167 47.167v72.833h30.167v330h364v-330h30.167zm-272.167-77.167h120v30h-120zm-92 450v-30h304v30zm304-60h-47v-210h-30v210h-60v-210h-30v210h-60v-210h-30v210h-47v-240h304zm30.167-270h-.167-364-.167v-42.833c0-9.466 7.701-17.167 17.167-17.167h75 180 75c9.466 0 17.167 7.701 17.167 17.167z"/></g></svg>