<svg width="22" height="22" viewBox="0 0 22 22" fill="none" xmlns="http://www.w3.org/2000/svg">
<path d="M21.8835 21.2977L15.8866 15.3008C19.2901 11.5739 19.0279 5.79361 15.3009 2.39013C11.574 -1.01334 5.79373 -0.751095 2.39026 2.97582C-1.01322 6.70274 -0.750973 12.483 2.97594 15.8865C6.46609 19.0738 11.8108 19.0738 15.3009 15.8865L21.2978 21.8834C21.4623 22.0423 21.7245 22.0378 21.8835 21.8732C22.0386 21.7127 22.0386 21.4582 21.8835 21.2977ZM9.16448 17.4485C4.5915 17.4432 0.885604 13.7373 0.880375 9.16436C0.880375 4.58915 4.58927 0.880253 9.16448 0.880253C13.7397 0.880253 17.4486 4.58915 17.4486 9.16436C17.4486 13.7396 13.7397 17.4485 9.16448 17.4485Z" fill="black"/>
</svg>
