<svg width="38" height="38" viewBox="0 0 38 38" fill="none" xmlns="http://www.w3.org/2000/svg">
<path d="M23.4531 19.2969C23.0435 19.2969 22.7109 19.6294 22.7109 20.0391C22.7109 20.4487 23.0435 20.7812 23.4531 20.7812C23.8628 20.7812 24.1953 20.4487 24.1953 20.0391C24.1953 19.6294 23.8628 19.2969 23.4531 19.2969Z" fill="#FEFEFE"/>
<path d="M7.58346 27.445L0.161588 36.7966C-0.0155516 37.0195 -0.049182 37.3242 0.0746126 37.5805C0.198407 37.8371 0.458173 38 0.742871 38H37.2585C37.5432 38 37.803 37.8371 37.9267 37.5805C38.0508 37.3242 38.0169 37.0195 37.8398 36.7966L30.4179 27.445C30.2773 27.2676 30.063 27.1641 29.8366 27.1641H23.3352L28.8857 18.4584C30.1877 16.5064 30.8757 14.23 30.8757 11.875C30.8757 5.32722 25.5487 0 19.0007 0C12.4526 0 7.12568 5.32722 7.12568 11.875C7.12568 14.23 7.81365 16.5061 9.11567 18.4584L14.6661 27.1641H8.16474C7.93832 27.1641 7.72436 27.2676 7.58346 27.445ZM4.81243 33.3242H9.30006L6.76734 36.5156H2.27943L4.81243 33.3242ZM15.6127 28.6484L17.6473 31.8398H12.3732L14.9062 28.6484H15.6127ZM22.3889 28.6484H23.0955L25.6282 31.8398H20.3543L22.3889 28.6484ZM26.8064 33.3242L29.3391 36.5156H8.66224L11.1952 33.3242H26.8064ZM31.2343 36.5156L28.7013 33.3242H33.1892L35.7219 36.5156H31.2343ZM32.011 31.8398H27.5234L24.9904 28.6484H29.4783L32.011 31.8398ZM10.3548 17.6409C9.21337 15.9321 8.61006 13.9383 8.61006 11.875C8.61006 6.14566 13.2713 1.48438 19.0007 1.48438C24.73 1.48438 29.3913 6.14566 29.3913 11.875C29.3913 13.9383 28.788 15.9321 27.6469 17.6409C27.6437 17.6452 27.6411 17.6496 27.6382 17.6539C27.1508 18.4184 19.3761 30.6129 19.0007 31.2014C18.0564 29.7203 11.3248 19.1621 10.3632 17.6539C10.3606 17.6496 10.3577 17.6452 10.3548 17.6409ZM13.011 28.6484L10.4783 31.8398H5.99037L8.52337 28.6484H13.011Z" fill="#FEFEFE"/>
<path d="M19 19.2969C23.0745 19.2969 26.4219 15.9973 26.4219 11.875C26.4219 7.78253 23.0925 4.45312 19 4.45312C14.9075 4.45312 11.5781 7.78253 11.5781 11.875C11.5781 15.9985 14.9267 19.2969 19 19.2969ZM19 5.9375C22.274 5.9375 24.9375 8.60097 24.9375 11.875C24.9375 15.1795 22.2526 17.8125 19 17.8125C15.7466 17.8125 13.0625 15.1795 13.0625 11.875C13.0625 8.60097 15.726 5.9375 19 5.9375Z" fill="#FEFEFE"/>
<path d="M22.126 21.8296C21.7752 21.6179 21.3188 21.731 21.1072 22.0821L18.364 26.6332C18.1524 26.9843 18.2654 27.4403 18.6165 27.652C18.9691 27.8645 19.4245 27.7491 19.6353 27.3995L22.3785 22.8483C22.5901 22.4973 22.4771 22.0412 22.126 21.8296Z" fill="#FEFEFE"/>
</svg>
