<svg width="39" height="38" viewBox="0 0 39 38" fill="none" xmlns="http://www.w3.org/2000/svg">
<g clip-path="url(#clip0)">
<path d="M38.944 14.6408C38.8096 14.2376 38.4521 13.9439 38.0217 13.8831L25.9316 12.1712L20.5246 1.49652C20.3321 1.11644 19.935 0.875977 19.5 0.875977C19.0652 0.875977 18.6679 1.11644 18.4754 1.49652L13.0682 12.1711L0.978265 13.8831C0.547971 13.9439 0.190269 14.2376 0.0559778 14.6406C-0.0784652 15.0438 0.0336595 15.4862 0.345049 15.7819L9.09322 24.091L7.02836 35.8237C6.95485 36.2414 7.13111 36.6634 7.48295 36.9126C7.83479 37.1616 8.30111 37.1946 8.68623 36.9973L19.5 31.4578L30.3134 36.9972C30.4806 37.0829 30.6631 37.1251 30.845 37.1251C31.0819 37.1251 31.3177 37.0535 31.5166 36.9126C31.8685 36.6634 32.0447 36.2413 31.9712 35.8237L29.9058 24.091L38.6549 15.7819C38.9663 15.4861 39.0784 15.0437 38.944 14.6408Z" fill="#FED42D"/>
<path d="M38.944 14.6408C38.8096 14.2376 38.4521 13.9439 38.0217 13.8831L25.9316 12.1712L20.5246 1.49652C20.3321 1.11644 19.9349 0.875977 19.5 0.875977V31.4578L30.3134 36.9973C30.4806 37.0829 30.6631 37.1252 30.845 37.1252C31.0819 37.1252 31.3177 37.0535 31.5167 36.9127C31.8685 36.6635 32.0448 36.2414 31.9713 35.8237L29.9058 24.091L38.6548 15.7819C38.9663 15.4861 39.0784 15.0437 38.944 14.6408Z" fill="#FCBF29"/>
</g>
<defs>
<clipPath id="clip0">
<rect width="39" height="38" fill="white"/>
</clipPath>
</defs>
</svg>
