<svg width="39" height="38" viewBox="0 0 39 38" fill="none" xmlns="http://www.w3.org/2000/svg">
<g clip-path="url(#clip0)">
<path d="M38.944 14.6407C38.8096 14.2376 38.4522 13.9438 38.0218 13.883L25.9316 12.1711L20.5246 1.49652C20.3322 1.11652 19.9349 0.875977 19.5001 0.875977C19.0651 0.875977 18.668 1.11652 18.4755 1.49652L13.0682 12.1711L0.978262 13.883C0.547968 13.9438 0.190343 14.2376 0.0559761 14.6406C-0.0784668 15.0437 0.0336578 15.4861 0.345123 15.7819L9.09328 24.0909L7.02842 35.8236C6.95484 36.2413 7.1311 36.6633 7.48293 36.9124C7.68197 37.0533 7.91772 37.125 8.15461 37.125C8.33651 37.125 8.51902 37.0828 8.68614 36.9971L19.5 31.4576L30.3134 36.9971C30.6984 37.1942 31.1648 37.1614 31.5167 36.9124C31.8685 36.6633 32.0448 36.2411 31.9713 35.8234L29.9058 24.0909L38.6549 15.7818C38.9663 15.4861 39.0785 15.0437 38.944 14.6407Z" fill="#CDCDCD"/>
</g>
<defs>
<clipPath id="clip0">
<rect width="39" height="38" fill="white"/>
</clipPath>
</defs>
</svg>
