<svg width="32" height="31" viewBox="0 0 32 31" fill="none" xmlns="http://www.w3.org/2000/svg">
<path d="M23.0728 10.5817C23.561 11.0548 23.561 11.8215 23.0728 12.2943L14.687 20.4183C14.1987 20.891 13.4075 20.891 12.9192 20.4183L8.92725 16.5508C8.43896 16.078 8.43896 15.3113 8.92725 14.8385C9.41528 14.3655 10.2068 14.3655 10.6948 14.8385L13.803 17.8495L21.3049 10.5817C21.7932 10.109 22.5847 10.109 23.0728 10.5817ZM32 15.5C32 24.0676 24.8428 31 16 31C7.15601 31 0 24.0664 0 15.5C0 6.93238 7.15723 0 16 0C24.844 0 32 6.93356 32 15.5ZM29.5 15.5C29.5 8.27103 23.4612 2.42188 16 2.42188C8.53784 2.42188 2.5 8.27198 2.5 15.5C2.5 22.729 8.53882 28.5781 16 28.5781C23.4622 28.5781 29.5 22.728 29.5 15.5Z" fill="#008F10"/>
</svg>
