<svg width="607" height="520" viewBox="0 0 607 520" fill="none" xmlns="http://www.w3.org/2000/svg">
<path d="M194.016 36.755C193.412 37.804 182.994 41.177 167.773 45.192C128.937 55.435 113.132 61.237 95.5505 71.662C83.336 78.846 75.1533 86.147 68.6094 95.692C59.7052 108.62 38.6333 160.692 11.912 235.35C8.45662 245.183 5.29192 254.05 5.00312 255.091C4.63542 256.134 3.46506 259.707 2.20993 263.061L0 269.172L1.64261 271.564C4.35012 275.406 20.5925 289.299 28.9514 294.764C46.0755 306.125 64.7589 313.681 83.2475 316.814C92.4533 318.418 109.931 319.141 115.199 318.192L119.761 317.408L123.99 306.964C130.379 291.518 135.181 281.796 136.215 282.065C137.409 282.402 141.125 291.605 144.068 301.419C149.954 321.046 154.004 345.962 155.727 372.562L156.548 385.826L193.287 211.041C213.443 114.928 229.942 36.035 229.932 35.667C229.913 34.929 194.548 35.929 194.016 36.755Z" fill="#030F26" fill-opacity="0.7"/>
<path d="M286.471 503.94C285.484 508.38 283.018 512.08 279.071 515.04C275.124 518.493 270.931 519.973 266.491 519.48C250.704 518.493 236.891 518 225.051 518C213.211 518 199.398 517.507 183.611 516.52C179.171 516.027 175.718 514.3 173.251 511.34C170.784 507.887 170.044 503.693 171.031 498.76L273.151 19.24C274.631 11.347 280.551 6.907 290.911 5.92H296.091C299.051 4.9333 301.271 4.44 302.751 4.44L598.011 0C605.411 0 607.878 4.1933 605.411 12.58L575.071 110.26C574.084 113.713 571.618 116.92 567.671 119.88C563.724 122.84 559.778 124.32 555.831 124.32L378.231 120.62L355.291 216.08L478.871 213.12C490.711 213.12 495.151 217.313 492.191 225.7L464.071 311.54C463.084 314.993 460.864 318.2 457.411 321.16C453.958 323.627 450.504 324.86 447.051 324.86L330.131 320.42L286.471 503.94Z" fill="#030F26" fill-opacity="0.6"/>
<path d="M200.721 11.4961C200.11 12.5871 189.821 15.9351 174.805 19.8681C136.491 29.8991 120.871 35.6991 103.431 46.3241C91.3154 53.6451 83.1577 61.1631 76.5725 71.0731C67.6129 84.4951 46.0548 138.833 18.5743 216.807C15.0177 227.078 11.7627 236.338 11.4618 237.427C11.0835 238.516 9.87484 242.251 8.58654 245.753L6.31494 252.134L7.88864 254.681C10.4844 258.77 26.2078 273.683 34.3275 279.585C50.9588 291.853 69.1846 300.15 87.2922 303.793C96.3074 305.654 113.461 306.745 118.651 305.847L123.145 305.109L127.471 294.211C134.003 278.095 138.879 267.967 139.89 268.268C141.057 268.646 144.556 278.391 147.284 288.762C152.74 309.506 156.305 335.774 157.558 363.769L158.146 377.728L197.122 194.69C218.508 94.0391 236.018 11.4201 236.015 11.0331C236.008 10.2571 201.256 10.6381 200.721 11.4961Z" fill="#030F26"/>
<path d="M265.471 503.94C264.484 508.38 262.018 512.08 258.071 515.04C254.124 518.493 249.931 519.973 245.491 519.48C229.704 518.493 215.891 518 204.051 518C192.211 518 178.398 517.507 162.611 516.52C158.171 516.027 154.718 514.3 152.251 511.34C149.784 507.887 149.044 503.693 150.031 498.76L252.151 19.24C253.631 11.347 259.551 6.907 269.911 5.92H275.091C278.051 4.9333 280.271 4.44 281.751 4.44L577.011 0C584.411 0 586.878 4.1933 584.411 12.58L554.071 110.26C553.084 113.713 550.618 116.92 546.671 119.88C542.724 122.84 538.778 124.32 534.831 124.32L357.231 120.62L334.291 216.08L457.871 213.12C469.711 213.12 474.151 217.313 471.191 225.7L443.071 311.54C442.084 314.993 439.864 318.2 436.411 321.16C432.958 323.627 429.504 324.86 426.051 324.86L309.131 320.42L265.471 503.94Z" fill="#030F26"/>
</svg>
