<svg width="607" height="521" viewBox="0 0 607 521" fill="none" xmlns="http://www.w3.org/2000/svg">
<path d="M194.244 37.715C193.64 38.764 183.222 42.137 168.001 46.152C129.165 56.395 113.36 62.197 95.779 72.622C83.5645 79.806 75.3818 87.107 68.8379 96.652C59.9337 109.58 38.8618 161.652 12.1405 236.31C8.68514 246.143 5.52044 255.01 5.23164 256.051C4.86394 257.094 3.69358 260.667 2.43845 264.021L0.228516 270.132L1.87113 272.524C4.57864 276.366 20.821 290.259 29.1799 295.724C46.304 307.085 64.9874 314.641 83.476 317.774C92.6818 319.378 110.159 320.101 115.427 319.152L119.989 318.368L124.218 307.924C130.607 292.478 135.409 282.756 136.443 283.025C137.637 283.362 141.353 292.565 144.296 302.379C150.182 322.006 154.232 346.922 155.955 373.522L156.776 386.786L193.515 212.001C213.671 115.888 230.17 36.995 230.16 36.627C230.141 35.889 194.776 36.889 194.244 37.715Z" fill="#C1C1C1"/>
<path d="M286.7 504.9C285.713 509.34 283.247 513.04 279.3 516C275.353 519.453 271.16 520.933 266.72 520.44C250.933 519.453 237.12 518.96 225.28 518.96C213.44 518.96 199.627 518.467 183.84 517.48C179.4 516.987 175.947 515.26 173.48 512.3C171.013 508.847 170.273 504.653 171.26 499.72L273.38 20.2C274.86 12.307 280.78 7.86696 291.14 6.87996H296.32C299.28 5.89326 301.5 5.39996 302.98 5.39996L598.24 0.959961C605.64 0.959961 608.107 5.15326 605.64 13.54L575.3 111.22C574.313 114.673 571.847 117.88 567.9 120.84C563.953 123.8 560.007 125.28 556.06 125.28L378.46 121.58L355.52 217.04L479.1 214.08C490.94 214.08 495.38 218.273 492.42 226.66L464.3 312.5C463.313 315.953 461.093 319.16 457.64 322.12C454.187 324.587 450.733 325.82 447.28 325.82L330.36 321.38L286.7 504.9Z" fill="#C1C1C1"/>
<path d="M200.95 12.456C200.339 13.547 190.05 16.895 175.034 20.828C136.72 30.859 121.1 36.659 103.66 47.284C91.544 54.605 83.3863 62.123 76.8011 72.033C67.8415 85.455 46.2834 139.793 18.8029 217.767C15.2463 228.038 11.9913 237.298 11.6904 238.387C11.3121 239.476 10.1034 243.211 8.81506 246.713L6.54346 253.094L8.11716 255.641C10.713 259.73 26.4364 274.643 34.5561 280.545C51.1874 292.813 69.4132 301.11 87.5208 304.753C96.536 306.614 113.69 307.705 118.88 306.807L123.374 306.069L127.7 295.171C134.232 279.055 139.108 268.927 140.119 269.228C141.286 269.606 144.785 279.351 147.513 289.722C152.969 310.466 156.534 336.734 157.787 364.729L158.375 378.688L197.351 195.65C218.737 94.999 236.247 12.38 236.244 11.993C236.237 11.217 201.485 11.598 200.95 12.456Z" fill="white"/>
<path d="M265.7 504.9C264.713 509.34 262.247 513.04 258.3 516C254.353 519.453 250.16 520.933 245.72 520.44C229.933 519.453 216.12 518.96 204.28 518.96C192.44 518.96 178.627 518.467 162.84 517.48C158.4 516.987 154.947 515.26 152.48 512.3C150.013 508.847 149.273 504.653 150.26 499.72L252.38 20.2C253.86 12.307 259.78 7.86696 270.14 6.87996H275.32C278.28 5.89326 280.5 5.39996 281.98 5.39996L577.24 0.959961C584.64 0.959961 587.107 5.15326 584.64 13.54L554.3 111.22C553.313 114.673 550.847 117.88 546.9 120.84C542.953 123.8 539.007 125.28 535.06 125.28L357.46 121.58L334.52 217.04L458.1 214.08C469.94 214.08 474.38 218.273 471.42 226.66L443.3 312.5C442.313 315.953 440.093 319.16 436.64 322.12C433.187 324.587 429.733 325.82 426.28 325.82L309.36 321.38L265.7 504.9Z" fill="white"/>
</svg>
